<svg xmlns="http://www.w3.org/2000/svg" viewBox="0 0 100 100">
  <defs>
    <linearGradient id="sunGradient" x1="0%" y1="0%" x2="0%" y2="100%">
      <stop offset="0%" style="stop-color:#F0C338;stop-opacity:1" />
      <stop offset="100%" style="stop-color:#E6890B;stop-opacity:1" />
    </linearGradient>
    <radialGradient id="palmFruit" cx="50%" cy="50%" r="50%">
      <stop offset="0%" style="stop-color:#E6890B;stop-opacity:1" />
      <stop offset="100%" style="stop-color:#C2280B;stop-opacity:1" />
    </radialGradient>
  </defs>

  <rect width="100" height="100" fill="#16460A" rx="20"/>

  <circle cx="50" cy="30" r="18" fill="url(#sunGradient)" opacity="0.9"/>
  <line x1="50" y1="12" x2="50" y2="18" stroke="#F0C338" stroke-width="2" stroke-linecap="round"/>
  <line x1="65" y1="15" x2="62" y2="20" stroke="#F0C338" stroke-width="2" stroke-linecap="round"/>
  <line x1="35" y1="15" x2="38" y2="20" stroke="#F0C338" stroke-width="2" stroke-linecap="round"/>

  <ellipse cx="42" cy="60" rx="10" ry="13" fill="url(#palmFruit)"/>
  <ellipse cx="58" cy="60" rx="10" ry="13" fill="url(#palmFruit)"/>
  <ellipse cx="50" cy="70" rx="10" ry="13" fill="url(#palmFruit)"/>

  <ellipse cx="42" cy="60" rx="4" ry="5" fill="#541C03"/>
  <ellipse cx="58" cy="60" rx="4" ry="5" fill="#541C03"/>
  <ellipse cx="50" cy="70" rx="4" ry="5" fill="#541C03"/>

  <path d="M 30 40 Q 35 32, 40 38 Q 42 44, 37 48" fill="#697D17" opacity="0.8"/>
  <path d="M 70 40 Q 65 32, 60 38 Q 58 44, 63 48" fill="#697D17" opacity="0.8"/>
  <path d="M 50 35 Q 48 28, 50 25 Q 52 28, 50 35" fill="#697D17" opacity="0.9"/>
</svg>
